<svg xmlns="http://www.w3.org/2000/svg" version="1.1" xmlns:xlink="http://www.w3.org/1999/xlink" xmlns:svgjs="http://svgjs.com/svgjs" width="1440" height="560" preserveAspectRatio="none" viewBox="0 0 1440 560"><g mask="url(&quot;#SvgjsMask1379&quot;)" fill="none"><rect width="1440" height="560" x="0" y="0" fill="rgba(243, 249, 255, 1)"></rect><path d="M1524.45 101.47C1425.82 101.19 1330.32 31.47 1136.18 31.47 942.05 31.47 943.34 101.62 747.91 101.47 552.48 101.32 464.58-55.42 359.64-58.51" stroke="rgba(243, 220, 255, 0.58)" stroke-width="2"></path><path d="M1644.18 72.25C1496.78 73.53 1362.69 223.99 1074.28 223.45 785.86 222.91 668.53-94.42 504.37-105.99" stroke="rgba(243, 220, 255, 0.58)" stroke-width="2"></path><path d="M1721.8 116.7C1575.07 120.4 1451.12 329.92 1174.63 329.5 898.15 329.08 792.08-26 627.47-43.13" stroke="rgba(243, 220, 255, 0.58)" stroke-width="2"></path><path d="M1681.52 146.62C1523.46 147.5 1300.17 287.36 1064.97 286.62 829.77 285.88 863.43-0.41 756.7-26.1" stroke="rgba(243, 220, 255, 0.58)" stroke-width="2"></path><path d="M1564.28 229.39C1436.11 237.26 1348.16 478.39 1113.59 475.79 879.02 473.19 825.74 16.12 662.9-31.3" stroke="rgba(243, 220, 255, 0.58)" stroke-width="2"></path></g><defs><mask id="SvgjsMask1379"><rect width="1440" height="560" fill="#ffffff"></rect></mask></defs></svg>